<svg xmlns="http://www.w3.org/2000/svg" viewBox="0 0 64 64"><path
				d="M45.9,24.4c-1.4-2.5-3.4-4.4-5.8-5.8c-2.5-1.4-5.1-2.1-8-2.1c-2.9,0-5.6,0.7-8,2.1c-2.5,1.4-4.4,3.4-5.8,5.8
			c-1.4,2.5-2.1,5.1-2.1,8c0,3.5,1,6.6,3.1,9.4c2,2.8,4.7,4.7,7.9,5.8c0.4,0.1,0.7,0,0.8-0.1c0.2-0.2,0.3-0.4,0.3-0.6
			c0,0,0-0.4,0-1.1c0-0.7,0-1.3,0-1.9l-0.5,0.1C27.2,44,26.9,44,26.4,44c-0.5,0-0.9-0.1-1.4-0.1c-0.5-0.1-1-0.3-1.4-0.6
			c-0.4-0.3-0.7-0.8-0.9-1.3l-0.2-0.5c-0.1-0.3-0.4-0.7-0.7-1.1c-0.3-0.4-0.6-0.7-0.9-0.8l-0.1-0.1c-0.1-0.1-0.2-0.2-0.3-0.3
			c-0.1-0.1-0.1-0.2-0.2-0.3c0-0.1,0-0.2,0.1-0.2c0.1-0.1,0.3-0.1,0.6-0.1l0.4,0.1c0.3,0.1,0.6,0.2,1,0.5c0.4,0.3,0.7,0.6,1,1.1
			c0.3,0.6,0.7,1,1.2,1.3c0.5,0.3,0.9,0.4,1.4,0.4c0.5,0,0.9,0,1.2-0.1c0.3-0.1,0.6-0.2,0.9-0.3c0.1-0.9,0.5-1.6,1-2.1
			c-0.8-0.1-1.5-0.2-2.1-0.4c-0.6-0.2-1.3-0.4-2-0.8c-0.7-0.4-1.2-0.8-1.7-1.4c-0.4-0.6-0.8-1.3-1.1-2.2c-0.3-0.9-0.4-1.9-0.4-3.1
			c0-1.7,0.5-3.1,1.6-4.3C22.9,26,23,24.6,23.6,23c0.4-0.1,1,0,1.8,0.3c0.8,0.3,1.4,0.6,1.7,0.8c0.4,0.2,0.7,0.4,0.9,0.6
			c1.3-0.4,2.6-0.5,4-0.5s2.7,0.2,4,0.5l0.8-0.5c0.5-0.3,1.2-0.6,1.9-0.9c0.7-0.3,1.3-0.4,1.7-0.2c0.6,1.6,0.7,3,0.2,4.2
			c1.1,1.2,1.6,2.6,1.6,4.3c0,1.2-0.1,2.2-0.4,3.1c-0.3,0.9-0.7,1.6-1.1,2.2c-0.5,0.5-1,1-1.7,1.4c-0.7,0.4-1.3,0.6-2,0.8
			c-0.6,0.2-1.3,0.3-2.1,0.4c0.7,0.6,1.1,1.6,1.1,3v4.4c0,0.2,0.1,0.5,0.3,0.6c0.2,0.2,0.4,0.2,0.8,0.1c3.2-1.1,5.9-3,7.9-5.8
			c2-2.8,3.1-5.9,3.1-9.4C48,29.5,47.3,26.8,45.9,24.4z"
			/></svg>