<?xml version="1.0" encoding="UTF-8"?>
<svg id="Layer_2" data-name="Layer 2" xmlns="http://www.w3.org/2000/svg" viewBox="0 0 160.63 223.75">
  <defs>
    <style>
      .cls-1 {
        fill: #4c6057;
      }

      .cls-1, .cls-2, .cls-3, .cls-4, .cls-5 {
        stroke-width: 0px;
      }

      .cls-2 {
        fill: #d5a67a;
      }

      .cls-3 {
        fill: #ae7f53;
      }

      .cls-4 {
        fill: #667a71;
      }

      .cls-5 {
        fill: #32463d;
      }
    </style>
  </defs>
  <g id="Layer_1-2" data-name="Layer 1">
    <g>
      <path class="cls-2" d="M62.9,178.8c3.36-5.53,9.84-7.29,8.33-15.11-1.22-6.25-14.84-14.01-1.67-16.03,1.28-.21,2.59-.39,3.9-.54v-.3c2.86-.3,5.8-.39,8.71-.33,1.7-.03,3.39-.03,5.06.03v.21c2.62.21,5.17.51,7.67.89,13.21,2.02-.45,9.78-1.67,16.03-1.52,7.79,4.97,9.58,8.33,15.11,4.04,6.63,6.39,18.05,1.31,24.8-2.32,3.09-6.31,5.03-8.39,8.3-2.62,4.07,3.99,4.85,3.09,8.54-.68,2.71-7.94,3.45-15.32,3.24-7.41.21-14.69-.54-15.38-3.24-.89-3.66,5.71-4.43,3.09-8.54-2.08-3.27-6.07-5.23-8.39-8.3-5.09-6.72-2.74-18.17,1.31-24.77Z"/>
      <path class="cls-3" d="M91.48,149.36c1.34,0,6.81-.09,5.89,2.26-.65,1.75-6.75,1.19-8.3,1.25-4.52.18-9.28.27-13.77-.12-2.17-.18-6.72.36-7.97-1.55,1.4-.65,2.35-1.75,4.07-2.05,2.38-.42,5.12,0,7.49-.21,4.46-.33,8.89,0,12.58.42Z"/>
      <g>
        <path class="cls-5" d="M59.84,55.32c.3-3.9-.12-7.94.3-12.1.42-4.19,1.93-7.97,2.53-11.87.71-3.93.92-7.97,1.75-11.96l1.31-5.95c.3-.98.77-1.87.89-2.86.12-.98.06-2.02.36-3-.24.98-.09,1.99-.15,3-.06,1.04-.48,1.99-.68,2.97l-.98,5.92c-.59,3.96-.57,8-1.1,12.05-.48,4.1-1.84,7.94-2.08,11.84-.3,3.9.27,7.91.09,12.07-.36,8.03-.39,16,.8,23.88,1.07,7.88,3.42,15.52,5.8,23.2,4.67,15.32,10.59,30.37,18.14,44.4,1.43,2.59,2.97,5.12,4.61,7.61-.59.27-1.13.62-1.58,1.04-1.7-2.47-3.39-4.97-4.97-7.52-4.19-6.99-7.47-14.42-10.65-21.86-3.12-7.47-5.89-15.08-8.33-22.81-2.32-7.73-4.61-15.55-5.65-23.7-1.1-8.09-1.16-16.33-.42-24.36Z"/>
        <path class="cls-5" d="M53.83,13.53c-.8,2.35-1.16,4.67-1.25,7.05-.15,2.35,0,4.73.45,7.08s1.16,4.7,2.38,6.87c1.16,2.14,2.94,4.28,5.35,5.09-1.16-2.2-1.67-4.22-2.17-6.33-.45-2.11-.83-4.25-1.25-6.42-.42-2.17-.8-4.37-1.37-6.6-.54-2.23-1.13-4.49-2.14-6.72Z"/>
        <path class="cls-5" d="M69.12,0c-1.67,1.78-2.94,3.78-4.01,5.86-1.1,2.08-1.9,4.31-2.5,6.6-.59,2.38-.74,4.85-.51,7.23.21,2.38.74,4.67,1.64,6.93.89-2.29,1.34-4.58,1.75-6.78.45-2.2.83-4.28,1.34-6.33.51-2.14,1.04-4.28,1.46-6.54.48-2.23.83-4.52.83-6.96Z"/>
        <path class="cls-5" d="M46.49,23.82c.54,2.35,1.04,4.43,1.7,6.54.62,2.11,1.4,4.22,2.35,6.28.98,2.05,2.14,4.07,3.75,5.86,1.55,1.78,3.6,3.42,6.01,3.84-1.37-1.96-2.23-3.81-3.15-5.74-.86-1.93-1.7-3.87-2.65-5.86-.95-1.96-1.93-3.96-3.24-5.86-1.22-1.84-2.71-3.72-4.76-5.06Z"/>
        <path class="cls-5" d="M63.38,29.53c1.46-.06,2.8-.65,4.07-1.28,1.28-.65,2.47-1.7,3.42-2.53,2.02-1.73,3.9-3.51,5.83-5.12,1.87-1.58,4.04-3.03,6.13-4.73,2.11-1.67,4.25-3.51,5.8-5.89-2.65.95-5.12,1.84-7.58,2.97-2.47,1.1-4.91,2.41-7.17,4.28-2.2,1.84-4.01,3.96-5.56,6.19-.83,1.16-1.4,2.17-2.23,3.15-.8,1.01-1.67,1.99-2.71,2.94Z"/>
        <path class="cls-5" d="M62.46,37.5c2.02-2.2,4.37-3.45,6.78-4.76,2.47-1.28,4.88-2.29,7.58-3.81,2.59-1.55,4.7-3.18,6.96-4.31,2.26-1.07,5.15-1.61,7.97-2.65-2.88-.77-5.8-1.28-9.01-.62-3.18.71-5.8,2.41-8.12,3.78-2.26,1.31-5.03,2.8-7.26,4.76-2.29,1.96-4.52,4.55-4.91,7.61Z"/>
        <path class="cls-5" d="M60.85,47.35c1.04-1.28,2.47-1.73,3.93-2.5.71-.39,1.52-.86,2.23-1.61.68-.71,1.13-1.46,1.58-1.99.48-.59.77-.83,1.31-1.19s1.25-.74,2.02-1.37c1.61-1.34,2.35-2.59,3.33-3.24,2.47-1.9,4.85-3.81,7.35-5.5,2.56-1.64,5.09-3.21,8.33-3.75-3.15-1.34-6.87-.54-9.9.71-3.12,1.25-5.92,3.09-8.48,5.09-1.61,1.25-2.56,2.8-3.33,3.57-.42.42-1.04.86-1.75,1.52-.74.62-1.43,1.64-1.78,2.41-.77,1.67-.98,2.53-2.2,3.66-.98,1.13-2.47,2.44-2.62,4.19Z"/>
        <path class="cls-5" d="M59.75,52.52c-.33-1.19-1.28-2.14-2.08-2.94-.42-.39-.8-.77-1.13-1.16l-1.04-1.19c-1.52-1.72-3.18-3.27-4.91-4.76-1.78-1.43-3.69-2.65-5.68-3.72-.54-.3-.95-.51-1.43-.71l-1.58-.71c-1.07-.39-2.41-.95-3.63-.51,1.07.54,1.64,1.4,2.38,2.23l1.1,1.28c.42.45.92.86,1.25,1.28,1.55,1.64,3.24,3.03,4.97,4.4,1.7,1.4,3.45,2.71,5.35,3.84.48.27.92.62,1.58.92.59.27,1.13.48,1.7.65,1.07.3,2.08.54,3.15,1.1Z"/>
        <path class="cls-5" d="M59.75,61.09l-.45-.36.09.3c.12-.57-.09-.51-.12-.71l-.24-.42c-.18-.27-.33-.54-.51-.77-.36-.48-.71-1.01-1.13-1.46-.77-.92-1.61-1.78-2.47-2.62-1.72-1.67-3.48-3.15-5.56-4.55-4.1-2.65-8.95-4.31-13.92-4.1,1.96,1.58,3.93,2.8,5.86,4.04l5.65,3.69c1.81,1.22,3.81,2.59,5.86,3.69,1.01.57,2.05,1.13,3.12,1.64.54.27,1.07.51,1.61.74l.8.36c.27.03.54.45.74.18l.09.3.57.06Z"/>
        <path class="cls-5" d="M61.42,67.99c-2.29-1.58-4.22-3.18-6.42-4.7-2.14-1.58-4.79-2.86-7.32-3.69-2.59-.86-5.23-1.43-7.91-1.7-2.68-.3-5.38-.33-8.12.12,2.44,1.37,4.91,2.32,7.38,3.21,2.44.92,4.88,1.73,7.29,2.53,2.44.8,4.67,1.61,7.17,2.56,2.41.89,5.15,1.81,7.94,1.67Z"/>
        <path class="cls-5" d="M60.2,75.72c-1.99-2.05-4.37-3.51-6.75-4.82-2.41-1.31-4.7-2.38-7.11-3.57-2.38-1.16-5.2-2.17-7.82-2.65-2.65-.57-5.23-.95-8.03-1.34,1.99,2.02,4.52,3.39,6.93,4.58l7.08,3.39c2.44,1.16,5.12,2.11,7.7,2.77,2.62.68,5.2,1.22,8,1.64Z"/>
        <path class="cls-5" d="M61.83,85.03c-2.26-2.59-4.52-5.03-7.38-7.08-2.88-2.2-6.45-3.27-9.58-4.13-1.61-.45-3.09-.83-4.64-1.34-1.58-.48-3.18-.95-4.82-1.31-1.58-.39-3.3-.8-4.97-1.07-1.64-.24-3.21-.42-4.76-1.16.92,1.55,2.62,2.44,4.1,3.21.77.39,1.49.71,2.17,1.13.74.39,1.52.71,2.26,1.1,1.52.74,3.03,1.4,4.58,2.02,1.58.65,3.3,1.22,4.88,1.64,3.27.89,6.22,1.52,9.01,2.86,2.91,1.31,5.86,3.03,9.13,4.13Z"/>
        <path class="cls-5" d="M62.9,90.32l.3.48.21-.24c-1.01-1.25-2.56-1.87-4.01-2.35-1.46-.45-2.94-.71-4.37-.92-1.46-.24-2.77-.39-3.99-.71-1.49-.36-2.91-.57-4.34-.77-2.86-.42-5.59-.68-8.27-1.16-2.68-.51-5.2-1.22-7.76-2.83,1.19,2.83,3.96,4.88,6.75,6.07,2.83,1.25,5.8,1.81,8.65,2.26l4.19.57c1.61.24,3.18.21,4.61.09,2.88-.06,5.62-.71,8.36.03l.21-.24-.54-.27Z"/>
        <path class="cls-5" d="M65.1,98.62c-1.37-1.46-3.42-1.99-5.2-2.23-1.93-.3-3.78-.06-5.44.21-1.7.3-3.3.71-4.88,1.16-1.61.39-3.03.92-4.94.95,1.16,1.7,3.36,2.26,5.17,2.47,1.87.24,3.69.03,5.41-.24,1.73-.3,3.3-.74,4.82-1.13,1.67-.39,3.12-.86,5.06-1.19Z"/>
        <path class="cls-5" d="M60.88,57.58c1.61-.3,3.03-1.13,4.4-1.75,1.34-.65,2.71-1.22,4.1-1.84,1.4-.59,2.83-1.19,4.19-1.99,1.34-.8,2.65-1.64,3.96-2.47,1.28-.86,2.56-1.75,3.84-2.68,1.61-1.19,2.5-2.5,3.42-3.75.92-1.22,1.75-2.47,2.68-3.63.92-1.13,1.75-2.41,3.3-2.71-.74-.42-1.7-.27-2.5,0-.83.27-1.55.68-2.26,1.1-1.37.89-2.62,1.9-3.75,2.94-1.19.98-2.26,2.11-3.21,2.62-1.31.77-2.59,1.58-3.84,2.41-1.25.83-2.5,1.7-3.72,2.62-1.22.89-2.5,1.64-3.78,2.59-1.28.89-2.56,1.93-3.69,3.09-1.13,1.16-2.02,2.32-3.15,3.45Z"/>
        <path class="cls-5" d="M61.77,68.23l8.8-3.75c2.91-1.19,5.86-2.44,8.74-3.99,1.43-.77,2.86-1.58,4.25-2.62,1.37-1.01,2.59-2.08,3.75-3.24,2.35-2.23,4.37-4.49,6.96-6.54-3.36.39-6.39,2.17-9.07,3.84-2.77,1.78-5.15,3.24-7.97,4.67-2.77,1.49-5.59,2.97-8.3,4.85-2.68,1.84-5.29,4.02-7.17,6.78Z"/>
        <path class="cls-5" d="M62.07,78.93c.89-1.52,2.44-2.17,3.9-2.91,1.49-.74,3.03-1.34,4.67-2.2,3.09-1.81,5.77-3.42,8.77-5.06,2.86-1.61,6.07-3.21,8.83-5.47,1.43-1.07,2.68-2.38,3.87-3.57,1.19-1.25,2.59-2.68,2.94-4.49-1.22,1.28-2.71,1.96-4.22,2.74l-4.46,2.41c-2.94,1.55-5.98,2.8-9.1,4.52-3.03,1.67-6.07,3.81-8.51,6.04-1.25.98-2.71,2.05-4.01,3.3-1.22,1.28-2.71,2.83-2.68,4.7Z"/>
        <path class="cls-5" d="M63.2,88.51c1.31-1.22,2.91-1.58,4.55-2.32,1.61-.74,3.18-1.55,4.67-2.56,3.03-1.93,5.71-4.7,7.7-7.61,2.05-2.88,3.66-6.13,5.17-8.92,1.61-2.8,3.75-5.26,6.36-7.67-3.48.77-6.72,2.86-9.13,5.68-2.38,2.86-4.07,5.71-6.01,8.42-1.9,2.74-3.87,5.15-6.25,7.47-1.19,1.13-2.44,2.29-3.72,3.42-1.13,1.13-2.86,2.29-3.36,4.1Z"/>
        <path class="cls-5" d="M64.12,94.73c.8-1.1,2.05-1.37,3.27-1.84l1.9-.71c.33-.12.68-.33,1.04-.51l.89-.48c2.35-1.28,4.58-2.71,6.72-4.25,1.07-.77,2.11-1.58,3.15-2.41,1.07-.92,2.05-1.9,2.91-2.91.89-.98,1.7-2.05,2.53-3.06.42-.57.77-1.01,1.25-1.52s.98-1.19.98-1.93c-.48.54-1.04.71-1.67.92-.65.21-1.34.57-1.93.86-1.22.65-2.38,1.4-3.45,2.17l-3.15,2.17c-1.13.71-2.2,1.46-3.27,2.23-2.14,1.55-4.19,3.21-6.13,5.03l-1.34,1.28-1.52,1.31c-.98.92-2.32,2.11-2.2,3.66Z"/>
        <path class="cls-5" d="M67.36,102.52c1.01-2.2,3.21-1.31,5.47-3.09,1.81-1.1,3.6-2.26,5.32-3.63.86-.71,1.7-1.43,2.53-2.26.86-.89,1.55-1.84,2.11-2.8.59-.92,1.1-1.87,1.64-2.77.3-.51.45-.83.83-1.31.45-.51.65-1.28.45-1.84-.3.54-.71.74-1.19.86-.51.12-1.16.51-1.64.77-.98.62-1.9,1.34-2.71,2.05-.83.68-1.58,1.4-2.32,1.93l-2.44,1.9c-1.64,1.31-3.33,2.74-4.82,4.46l-.51.59c-.06.12-.24.27-.39.45l-1.25,1.16c-.86.83-1.7,2.38-1.1,3.51Z"/>
      </g>
      <g>
        <path class="cls-1" d="M0,88c3.15-1.87,6.84-2.86,10.5-2.86,3.69,0,7.29.92,10.71,2.23,3.45,1.28,6.84,2.74,10.14,4.37,3.33,1.67,6.78,3.09,10.08,4.67,3.3,1.58,6.48,3.33,9.25,5.53,2.74,2.26,5.26,4.88,7.58,7.55,1.16,1.34,2.32,2.74,3.42,4.13,1.1,1.37,2.02,2.83,2.94,4.34,1.78,3.03,3.54,6.31,5.74,9.22,2.11,2.91,4.16,5.83,5.98,8.86,1.84,2.97,3.15,6.22,4.64,9.52.68,1.61,1.67,3.36,2.38,4.82.71,1.52,1.19,3.18,1.61,4.88l1.19,5.17c.45,1.78,1.04,3.45,1.52,5.15,2.17,6.69,2.8,13.71,3.45,20.73s.74,14.07.57,21.12c.74-7.02.89-14.1.65-21.18-.15-3.54-.45-7.08-.83-10.59-.33-3.54-1.07-7.11-1.99-10.53-.45-1.73-.95-3.42-1.34-5.12l-1.1-5.17c-.42-1.75-.89-3.54-1.67-5.26-.83-1.75-1.61-3.15-2.32-4.82-1.43-3.21-2.74-6.63-4.64-9.78-1.84-3.12-3.9-6.13-6.01-9.07-2.2-2.86-3.84-5.89-5.74-9.01-.95-1.55-1.96-3.09-3.15-4.55-1.13-1.43-2.32-2.83-3.54-4.19-2.44-2.74-5.03-5.35-7.94-7.73-2.97-2.35-6.39-4.1-9.78-5.62-3.42-1.52-6.9-2.86-10.2-4.37-3.39-1.58-6.87-2.94-10.41-4.13-3.57-1.19-7.35-1.96-11.15-1.78C6.72,84.7,3,85.95,0,88Z"/>
        <path class="cls-1" d="M5.59,78.49c4.91,1.28,9.31,3.27,13.65,5.53l1.64.86c.51.27.98.54,1.46.86.95.62,1.84,1.31,2.71,2.11,1.75,1.52,3.54,3.3,5.47,4.88,3.84,3.06,7.76,6.28,11.72,8.98,1.99,1.46,4.25,2.91,6.84,3.69,2.74.68,5.17.36,7.7.59-2.32-.98-5.03-1.19-7.02-2.2-2.08-1.01-3.84-2.56-5.65-4.16-.89-.8-1.81-1.67-2.83-2.44l-2.74-2.41-5.59-4.67c-1.9-1.46-3.57-3.12-5.62-4.73-1.01-.8-2.11-1.55-3.27-2.2-.59-.33-1.19-.62-1.81-.89l-1.75-.68c-4.7-1.93-9.81-3.27-14.9-3.12Z"/>
        <path class="cls-1" d="M48.95,99.57c-1.43-.65-2.77-1.37-4.22-1.99-.74-.3-1.52-.57-2.32-.8-.74-.21-1.52-.39-2.29-.57-3.06-.68-6.22-1.1-9.46-1.1-3.33.09-6.25.65-9.34,1.16-3.18.62-5.86,1.75-9.01,2.14,3.06,1.1,6.45.65,9.37.59,3.03.06,6.25-.33,9.07-.36,2.91-.03,5.95.15,8.98.27l2.29.12c.71.03,1.46.09,2.2.18,1.52.18,3.12.48,4.73.36Z"/>
        <path class="cls-1" d="M40.03,95.38c-1.07-.98-2.65-1.28-3.96-1.67-1.28-.33-2.59-.71-4.01-.98-2.77-.57-5.53-1.25-8.48-1.16-2.88.03-5.62.42-8.3.8-1.34.18-2.68.36-4.01.48-.62.09-1.52.09-2.2.36-.68.24-1.28.54-1.99.65.68.24,1.46.27,2.14.3.68.03,1.16.21,1.93.39,1.43.3,2.86.48,4.25.54,2.86.18,5.59,0,8.24-.03,2.59-.12,5.29.36,8.03.36,1.34.03,2.77.06,4.22,0,1.43-.06,2.71-.27,4.13-.03Z"/>
        <path class="cls-1" d="M47.62,98.74c-1.22-1.81-3.51-2.71-5.38-3.57-1.87-.83-3.57-1.96-5.38-3.06-3.66-2.23-7.44-4.25-11.57-5.86-4.13-1.55-8.62-2.5-13.15-2.44-4.46.03-9.28,1.4-12.13,4.58,3.84-1.96,8-2.26,12.05-1.84,4.07.48,8.06,1.46,11.87,2.94,3.84,1.43,7.64,3.3,11.51,4.97,1.9.89,3.99,1.78,6.19,2.29,2.17.51,4.19.77,6.01,1.99Z"/>
        <path class="cls-1" d="M23.17,67.39c.74,1.75,2.53,2.88,3.87,4.07,1.34,1.07,2.38,2.5,3.66,3.87.59.68,1.4,1.46,2.08,2.02.65.57,1.25,1.16,1.81,1.81,1.16,1.25,2.23,2.62,3.27,4.07,2.23,2.94,4.28,5.68,6.28,8.74.98,1.49,2.17,3.09,3.36,4.43.59.68,1.22,1.37,1.67,2.05.18.27.48.95.86,1.19.42.3.8.51,1.16.83-.21-.42-.54-.8-.74-1.16-.27-.42-.21-.62-.33-1.19-.27-.98-.68-1.78-1.1-2.62-.89-1.64-1.58-3.15-2.38-4.82-.74-1.64-1.64-3.27-2.62-4.88-1.07-1.64-2.08-3-3.15-4.55-1.13-1.49-2.32-3-3.75-4.34-.71-.68-1.49-1.31-2.29-1.9-.77-.57-1.4-1.01-2.11-1.61-1.4-1.13-2.86-2.47-4.7-3.36-1.69-.89-3.42-1.43-4.85-2.68Z"/>
        <path class="cls-1" d="M58.11,107.25c.24-.86.03-1.81-.12-2.62-.18-.83-.18-1.55-.09-2.38.12-1.58.57-3.24.74-4.97.27-1.73.33-3.54.12-5.41l-.83-5.09c-.65-3.36-1.37-6.78-2.88-10.11-.74-1.67-1.81-3.27-3.18-4.58-1.4-1.28-2.8-2.14-3.84-3.63.24,1.78,1.58,3.3,2.41,4.67.86,1.37,1.43,2.88,1.87,4.43.83,3.12,1.37,6.45,1.96,9.78l1.01,4.97c.33,1.52.39,3.12.45,4.79s.03,3.39.33,5.2c.18.86.48,1.84.95,2.62.45.77.92,1.46,1.1,2.32Z"/>
        <path class="cls-1" d="M68.29,69.56c-.62,1.84-.3,3.9-.33,5.68-.06,1.78-.45,3.69-.57,5.5-.18,1.81-.33,3.69-.57,5.53-.21,1.84-.36,3.69-.62,5.53-.36,3.66-1.13,7.23-1.93,10.91-.39,1.84-.71,3.69-1.01,5.53-.15.89-.3,1.96-.27,2.91.03.95.09,1.87,0,2.83h.18c-.06-.12-.06-.27-.09-.42,0,.15-.09.27-.09.45l.03.27.15-.24c.51-.86.71-1.84,1.01-2.74.24-.92.59-1.67.95-2.59.71-1.75,1.4-3.54,2.02-5.35.65-1.81,1.25-3.57,1.75-5.44.42-1.87.74-3.78.98-5.68.39-3.84.65-7.55.36-11.42-.12-1.93-.15-3.78-.54-5.77-.45-1.93-1.22-3.6-1.43-5.5Z"/>
        <path class="cls-1" d="M84.41,77.51c-.57.77-1.07,1.67-1.67,2.23-.74.65-1.4,1.46-1.99,2.2-1.19,1.55-2.23,3.21-3.15,4.88-1.84,3.36-3.51,6.6-5.2,10.02-1.61,3.42-3.09,7.02-3.84,10.83-.3,1.73-.89,3.45-1.34,5.35-.18.98-.39,1.87-.36,2.94.06.51.18.95.15,1.37l-.03.71v.54c.09.18.09-.06.09-.06l.48-1.07c.21-.51.21-1.01.33-1.43.24-.77.65-1.67,1.07-2.44.8-1.64,1.81-3.33,2.44-5.23,1.22-3.39,2.8-6.72,4.43-10.08l2.38-5.12c.74-1.75,1.46-3.51,2.11-5.23.68-1.73,1.31-3.45,2.08-5.15.39-.86.74-1.67,1.22-2.47.48-.95.57-1.84.8-2.8Z"/>
        <path class="cls-1" d="M87.2,83.45c-.95,3.9-3.45,6.93-5.59,10.26-1.13,1.67-2.14,3.45-3.06,5.32-.89,1.84-1.49,4.07-1.84,5.95-.36,1.93-.71,3.81-1.22,5.59-.42,1.75-1.31,3.6-1.75,5.62-.24.98-.48,2.05-.57,3.03l-.36,2.94c-.09,1.01-.15,2.02-.09,3.06.09,1.07.45,1.96.48,2.97.36-.95.36-2.02.57-2.91.21-.92.51-1.84.83-2.77l.95-2.83c.3-.95.57-1.78.95-2.68.71-1.75,1.61-3.48,2.35-5.47.68-1.96,1.1-3.96,1.52-5.89.51-3.78,2.08-7.05,3.81-10.65.86-1.78,1.73-3.63,2.35-5.56.6-1.93,1.07-4.02.68-6.01Z"/>
        <path class="cls-1" d="M91.63,88.69c-2.77,3.51-4.25,7.82-5.44,11.96-.65,2.05-1.16,4.13-1.81,6.13-.62,1.96-1.4,3.96-2.17,6.01-.71,2.05-1.4,4.16-1.87,6.36-.24,1.1-.39,2.2-.51,3.33-.12,1.16-.18,2.05-.33,3.12-.3,2.05-.77,4.22-.89,6.45-.03,1.13-.03,2.23.18,3.36.24,1.16.77,2.08.89,3.18.27-1.07.03-2.23.12-3.21.12-1.01.33-2.05.62-3.06.54-2.02,1.34-3.99,1.93-6.16.33-1.04.57-2.29.71-3.24.18-1.01.45-1.99.71-3,.54-1.99,1.22-3.99,1.96-5.98.68-2.02,1.46-4.07,2.02-6.25.51-2.17.95-4.28,1.25-6.42.68-4.28,1.25-8.42,2.62-12.58Z"/>
        <path class="cls-1" d="M60.73,111.02c-1.4-1.58-3.54-2.47-5.59-3.06-2.11-.59-4.13-.92-5.95-1.55-3.75-1.28-7.35-3.21-11.48-4.64-4.13-1.31-8.45-2.14-12.82-2.08-2.17-.03-4.4.39-6.39.59l-3.09.45c-.54.09-1.01.15-1.55.21-.27.03-.54.09-.8.15-.12.03-.27.06-.39.12-.12.03-.33.18-.18.3-.03-.27.39-.15.59-.15.27.03.51.09.77.12.51.09,1.07.21,1.58.24l3.18.33c2.17.21,4.13.18,6.13.42,3.99.48,7.94,1.37,11.72,2.65,3.78,1.19,7.58,3.09,11.96,3.96,4.46.89,8.45.06,12.31,1.96Z"/>
        <path class="cls-1" d="M65.82,117.98c-1.16-1.84-3-3.33-5.06-4.37-2.08-1.01-4.34-1.64-6.54-2.08-2.2-.51-4.37-.77-6.42-1.28-2.05-.45-3.9-1.07-5.89-1.96-1.99-.8-4.07-1.7-6.31-2.38-2.29-.62-4.46-1.07-6.72-1.34-4.49-.59-8.98-.62-13.44-.18,4.37,1.04,8.68,1.84,12.88,2.88,2.08.57,4.19,1.1,6.13,1.78,1.96.68,3.9,1.58,5.95,2.47,2.02.83,4.4,1.64,6.66,1.99,2.29.36,4.52.57,6.69.71,4.31.36,8.51.98,12.07,3.75Z"/>
        <path class="cls-1" d="M70.64,123.84c-2.56-3.63-6.99-5.62-10.74-7.61-3.93-2.14-8.24-3.69-12.58-4.82-4.49-1.04-8.74-1.73-13.41-1.87-4.52-.09-8.77.68-13.12-.48,1.81,1.31,4.1,1.9,6.33,2.35,2.23.39,4.46.62,6.6.86,2.08.27,4.19.71,6.36,1.16,2.14.42,4.25.83,6.31,1.37,4.19,1.01,8.24,2.32,12.28,3.9,4.16,1.64,8.33,2.65,11.96,5.15Z"/>
        <path class="cls-1" d="M73.13,129.58c-2.38-3.72-6.78-5.92-10.86-7.55-4.22-1.67-8.18-2.86-12.05-4.79-1.99-.89-4.01-1.81-6.16-2.62-2.2-.74-4.46-1.34-6.72-1.61-4.55-.59-9.01-.45-13.44,0,4.37,1.04,8.74,1.64,12.88,2.71,4.16.98,7.82,2.77,11.84,4.67,2.02.89,4.13,1.78,6.31,2.47,2.17.62,4.28,1.22,6.39,1.75,4.16,1.13,8.27,2.29,11.81,4.97Z"/>
        <path class="cls-1" d="M76.94,133.27c-3.39-2.38-7.11-4.28-11-5.86-3.87-1.58-8.03-2.71-12.16-3.39-4.07-.65-8.06-1.34-12.02-2.17-3.99-.83-8.39-1.75-12.55-.83,4.16.57,7.82,2.11,11.75,3.48,3.96,1.43,8.12,2.29,12.19,3,4.01.59,7.91,1.49,11.87,2.5l11.93,3.27Z"/>
        <path class="cls-1" d="M80.45,140.7c-2.68-3.81-6.75-6.63-10.89-8.89-2.08-1.16-4.22-2.14-6.45-3.09-2.23-.89-4.46-1.61-6.57-2.47-2.14-.8-4.16-1.67-5.98-2.8-1.99-1.19-4.04-2.44-6.25-3.45-4.31-2.08-9.19-3.42-13.98-3.24,4.58,1.31,8.71,3.24,12.55,5.62,1.93,1.22,3.81,2.44,5.68,3.81,2.08,1.4,4.37,2.44,6.6,3.33,4.58,1.64,8.83,2.91,13.12,4.73,4.25,1.78,8.39,3.69,12.16,6.45Z"/>
        <path class="cls-1" d="M81.07,143.59c-.77-.48-1.1-1.25-1.73-1.93-.68-.71-1.4-1.13-2.08-1.73-1.43-1.07-2.91-2.11-4.46-3-3.09-1.84-6.36-3.33-9.81-4.46l-5.15-1.7c-1.73-.51-3.45-.86-5.2-1.22l-2.62-.51c-.92-.18-1.87-.27-2.77-.33-1.81-.12-3.51-.15-5.32-.51,1.46,1.07,3.3,1.64,4.97,2.2.86.27,1.64.54,2.44.86l2.5.92c3.39,1.16,6.63,2.38,9.87,3.57,3.3,1.01,6.54,2.32,9.78,3.6l4.82,2.02c.77.33,1.7.65,2.41,1.01.62.39,1.4,1.07,2.35,1.19Z"/>
        <path class="cls-1" d="M82,141.72c.3-.77,1.04-1.19,1.67-1.67.68-.48,1.37-.92,2.08-1.49,1.31-1.37,2.23-2.5,3.36-3.72,2.11-2.47,4.4-4.49,6.66-7.2,1.04-1.34,2.05-2.8,2.83-4.43.36-.83.65-1.7.83-2.65.15-.8.27-1.58.36-2.38.45-3.18.74-6.39.68-9.73-1.46,2.94-2.56,6.01-3.54,9.1-.27.77-.51,1.55-.71,2.32-.18.62-.48,1.28-.83,1.9-.68,1.25-1.58,2.5-2.59,3.69-.95,1.25-2.02,2.35-3.12,3.66-1.07,1.31-2.08,2.65-2.94,4.07-.89,1.34-1.7,2.97-2.38,4.19-.39.62-.98,1.25-1.46,1.96-.45.68-1.01,1.49-.89,2.35Z"/>
      </g>
      <g>
        <path class="cls-4" d="M160.63,97.16c-2.94-1.84-6.39-2.88-9.87-2.97-3.51-.12-6.93.65-10.2,1.84-3.3,1.13-6.57,2.41-9.73,3.87-3.21,1.49-6.51,2.74-9.7,4.16-3.18,1.43-6.25,3-8.92,5-2.65,2.08-5.12,4.46-7.41,6.96-1.16,1.25-2.26,2.53-3.36,3.84-1.07,1.28-1.99,2.62-2.91,4.04-1.75,2.83-3.51,5.89-5.68,8.6-2.08,2.71-4.1,5.41-5.92,8.24-1.84,2.77-3.15,5.8-4.64,8.89-.71,1.52-1.67,3.12-2.38,4.49-.71,1.43-1.22,2.97-1.67,4.58l-1.25,4.88c-.48,1.67-1.07,3.24-1.58,4.82-2.23,6.31-3.03,12.94-3.84,19.54-.8,6.63-1.1,13.29-1.1,19.99-.54-6.66-.48-13.38-.06-20.08.24-3.36.62-6.69,1.07-10.02.42-3.33,1.19-6.69,2.17-9.93.48-1.64,1.01-3.24,1.4-4.82l1.19-4.88c.45-1.64.95-3.33,1.73-4.94.83-1.64,1.61-2.94,2.32-4.52,1.43-3,2.77-6.22,4.67-9.16,1.84-2.91,3.87-5.71,5.92-8.45,2.14-2.65,3.81-5.47,5.68-8.39.95-1.46,1.96-2.88,3.09-4.22,1.13-1.31,2.26-2.62,3.45-3.9,2.38-2.53,4.91-4.94,7.76-7.14,2.88-2.17,6.16-3.72,9.43-5.06,3.27-1.34,6.6-2.5,9.81-3.87,3.27-1.4,6.6-2.62,9.99-3.63,3.39-1.04,7.02-1.67,10.62-1.4,3.63.3,7.11,1.58,9.9,3.63Z"/>
        <path class="cls-4" d="M155.61,87.97c-4.67,1.1-8.92,2.83-13.09,4.88l-1.58.77c-.48.24-.95.48-1.4.77-.92.57-1.78,1.19-2.62,1.93-1.7,1.4-3.45,3.03-5.32,4.49-3.72,2.8-7.52,5.74-11.36,8.18-1.93,1.34-4.13,2.65-6.6,3.3-2.62.59-4.91.21-7.32.36,2.23-.86,4.79-1.01,6.72-1.9,2.02-.92,3.72-2.32,5.47-3.81.86-.74,1.75-1.52,2.74-2.23l2.68-2.2,5.41-4.28c1.84-1.34,3.48-2.86,5.44-4.34.98-.71,2.05-1.4,3.18-1.99.57-.3,1.16-.57,1.75-.8l1.7-.62c4.46-1.64,9.37-2.8,14.19-2.5Z"/>
        <path class="cls-4" d="M113.91,106.8c1.37-.59,2.65-1.22,4.04-1.78.71-.27,1.46-.51,2.2-.68.71-.18,1.46-.33,2.17-.48,2.91-.57,5.92-.89,9.01-.77,3.15.18,5.89.8,8.83,1.37,3,.65,5.5,1.81,8.48,2.29-2.91.95-6.13.45-8.89.3-2.88-.03-5.92-.48-8.6-.59-2.77-.12-5.62-.03-8.51.03l-2.17.06c-.68,0-1.37.06-2.08.12-1.46.06-2.97.27-4.49.15Z"/>
        <path class="cls-4" d="M122.5,103.05c1.04-.89,2.53-1.16,3.81-1.46,1.22-.27,2.47-.62,3.84-.83,2.65-.45,5.26-1.04,8.06-.86,2.74.12,5.32.54,7.85.98,1.28.21,2.53.42,3.81.57.57.09,1.43.15,2.08.42.65.24,1.19.54,1.87.68-.65.21-1.4.21-2.02.24-.65.03-1.13.18-1.84.33-1.34.24-2.71.36-4.04.39-2.71.09-5.29-.15-7.82-.24-2.47-.18-5.03.21-7.61.12-1.28,0-2.62-.03-4.01-.12-1.4-.18-2.62-.42-3.96-.21Z"/>
        <path class="cls-4" d="M115.22,106.03c1.19-1.67,3.42-2.47,5.17-3.24,1.81-.74,3.42-1.75,5.17-2.77,3.54-2.02,7.17-3.84,11.12-5.23,3.99-1.37,8.24-2.14,12.52-1.93,4.22.15,8.74,1.58,11.36,4.67-3.6-1.96-7.52-2.35-11.36-2.05-3.87.33-7.67,1.16-11.33,2.47-3.69,1.25-7.35,2.91-11.06,4.4-1.84.8-3.84,1.58-5.92,2.02-1.99.36-3.96.57-5.68,1.67Z"/>
        <path class="cls-4" d="M139.22,76.97c-.77,1.64-2.5,2.68-3.78,3.75-1.31.98-2.32,2.29-3.6,3.57-.59.62-1.37,1.34-2.02,1.84-.62.51-1.22,1.07-1.78,1.67-1.13,1.16-2.2,2.44-3.21,3.78-2.17,2.74-4.22,5.26-6.19,8.12-.95,1.4-2.14,2.86-3.33,4.1-.59.62-1.19,1.28-1.64,1.9-.15.24-.48.89-.86,1.1-.39.27-.77.48-1.13.74.21-.39.51-.74.74-1.07.27-.39.21-.57.36-1.13.27-.92.71-1.67,1.1-2.47.89-1.52,1.58-2.94,2.38-4.52.77-1.55,1.67-3.06,2.62-4.58,1.07-1.52,2.05-2.8,3.12-4.22,1.1-1.37,2.29-2.77,3.69-4.01.71-.62,1.46-1.19,2.23-1.73.74-.51,1.34-.92,2.05-1.46,1.34-1.04,2.8-2.26,4.55-3.06,1.67-.71,3.33-1.16,4.7-2.32Z"/>
        <path class="cls-4" d="M105.02,113.82c-.21-.8,0-1.73.18-2.5.18-.8.21-1.46.15-2.26-.09-1.52-.45-3.09-.59-4.73-.21-1.64-.21-3.36.03-5.12l.92-4.82c.71-3.18,1.49-6.39,3-9.52.77-1.55,1.81-3.03,3.15-4.25,1.34-1.16,2.71-1.96,3.75-3.33-.27,1.67-1.58,3.09-2.41,4.37-.86,1.28-1.43,2.68-1.9,4.13-.86,2.94-1.49,6.07-2.11,9.22l-1.1,4.7c-.36,1.43-.45,2.94-.57,4.52-.09,1.58-.12,3.21-.45,4.94-.18.83-.51,1.75-.98,2.44-.42.74-.89,1.37-1.07,2.2Z"/>
        <path class="cls-4" d="M96.39,77.8c.54,1.78.18,3.72.15,5.41,0,1.7.33,3.51.39,5.23.12,1.73.21,3.51.39,5.26.15,1.75.24,3.51.45,5.26.24,3.48.89,6.87,1.55,10.38.3,1.75.57,3.51.8,5.26.12.86.24,1.87.18,2.77-.06.92-.15,1.78-.09,2.68h-.15c.06-.12.06-.27.09-.39,0,.15.09.27.06.45l-.03.24-.12-.24c-.45-.83-.62-1.75-.86-2.62-.18-.89-.51-1.61-.83-2.47-.62-1.7-1.22-3.39-1.78-5.12-.57-1.73-1.1-3.42-1.52-5.2-.36-1.81-.62-3.6-.8-5.41-.24-3.66-.42-7.17-.03-10.83.18-1.84.24-3.6.65-5.44.48-1.87,1.28-3.42,1.52-5.23Z"/>
        <path class="cls-4" d="M80.9,84.91c.51.74.98,1.61,1.52,2.14.68.62,1.28,1.43,1.84,2.14,1.07,1.52,2.02,3.09,2.86,4.7,1.67,3.21,3.15,6.33,4.67,9.64,1.43,3.3,2.77,6.72,3.33,10.38.24,1.67.74,3.3,1.13,5.12.15.92.33,1.78.27,2.83-.06.48-.18.89-.18,1.31v1.19c-.09.15-.09-.06-.09-.06l-.45-1.01c-.18-.48-.18-.95-.27-1.37-.21-.74-.57-1.58-.95-2.35-.71-1.58-1.64-3.21-2.17-5.03-1.07-3.27-2.47-6.45-3.93-9.67l-2.11-4.91c-.65-1.7-1.28-3.36-1.84-5.03-.59-1.67-1.16-3.3-1.84-4.94-.33-.83-.65-1.61-1.1-2.38-.42-.95-.48-1.81-.68-2.71Z"/>
        <path class="cls-4" d="M78.07,90.44c.8,3.72,3.06,6.66,5.03,9.87,1.04,1.61,1.96,3.33,2.77,5.12.77,1.75,1.28,3.9,1.58,5.71.27,1.84.57,3.63,1.01,5.32.36,1.67,1.13,3.45,1.52,5.38.21.95.39,1.96.45,2.88l.27,2.8c.06.95.09,1.9,0,2.91-.12,1.01-.48,1.84-.54,2.8-.33-.92-.3-1.93-.45-2.8-.18-.86-.45-1.75-.71-2.65l-.83-2.71c-.27-.89-.51-1.72-.83-2.56-.62-1.67-1.43-3.33-2.08-5.26-.59-1.9-.92-3.78-1.28-5.62-.39-3.6-1.75-6.72-3.3-10.2-.77-1.7-1.52-3.48-2.08-5.35-.54-1.78-.92-3.75-.51-5.65Z"/>
        <path class="cls-4" d="M73.76,95.29c2.53,3.39,3.81,7.55,4.85,11.48.57,1.96.98,3.96,1.58,5.86.54,1.87,1.22,3.78,1.87,5.74.59,1.96,1.22,3.99,1.61,6.07.18,1.04.33,2.11.39,3.18.09,1.1.09,1.93.21,2.97.24,1.96.59,4.01.68,6.13,0,1.07-.03,2.11-.27,3.18-.24,1.1-.8,1.96-.95,2.97-.24-1.01.03-2.14-.03-3.06-.09-.95-.24-1.96-.51-2.91-.45-1.93-1.16-3.81-1.67-5.89-.27-.98-.48-2.17-.59-3.09-.15-.95-.36-1.9-.59-2.86-.45-1.9-1.04-3.81-1.7-5.74-.59-1.93-1.28-3.9-1.75-5.98-.45-2.05-.77-4.1-1.01-6.13-.51-3.99-.92-7.94-2.11-11.93Z"/>
        <path class="cls-4" d="M102.46,117.33c1.37-1.46,3.42-2.23,5.38-2.77,2.02-.51,3.93-.77,5.68-1.31,3.57-1.1,7.05-2.86,11.03-4.07,3.96-1.13,8.06-1.78,12.19-1.64,2.05.03,4.16.48,6.04.74l2.91.51c.51.12.95.15,1.46.24.24.03.51.09.74.15.12.03.24.06.36.12.09.03.3.18.18.27.03-.24-.39-.15-.57-.15-.24.03-.48.06-.74.09-.48.06-1.01.15-1.52.18l-3.03.21c-2.08.12-3.93.03-5.83.24-3.81.36-7.55,1.1-11.18,2.2-3.6,1.04-7.29,2.74-11.42,3.42-4.25.74-8-.15-11.69,1.58Z"/>
        <path class="cls-4" d="M97.43,123.75c1.13-1.73,2.94-3.06,4.91-3.99,1.99-.92,4.16-1.43,6.28-1.81,2.11-.42,4.16-.62,6.13-1.04,1.96-.39,3.72-.92,5.65-1.7,1.93-.71,3.9-1.52,6.04-2.08,2.17-.51,4.25-.89,6.39-1.1,4.28-.42,8.54-.33,12.73.18-4.16.86-8.3,1.52-12.28,2.38-1.99.48-4.01.92-5.86,1.55-1.87.59-3.75,1.4-5.71,2.17-1.93.74-4.19,1.43-6.39,1.73-2.17.27-4.28.42-6.36.51-4.07.24-8.06.71-11.51,3.21Z"/>
        <path class="cls-4" d="M92.67,129.2c2.53-3.36,6.78-5.15,10.38-6.93,3.78-1.93,7.91-3.27,12.07-4.22,4.28-.86,8.36-1.4,12.76-1.4,4.31.03,8.3.86,12.43-.09-1.75,1.19-3.96,1.7-6.07,2.05-2.11.33-4.25.45-6.28.65-1.96.21-4.01.57-6.07.92-2.02.33-4.04.68-6.01,1.13-3.99.86-7.88,1.96-11.75,3.36-3.99,1.43-7.94,2.23-11.48,4.52Z"/>
        <path class="cls-4" d="M90.17,134.55c2.35-3.45,6.6-5.44,10.5-6.87,4.04-1.46,7.85-2.47,11.54-4.22,1.9-.77,3.84-1.64,5.92-2.32,2.08-.65,4.25-1.13,6.42-1.34,4.31-.45,8.54-.18,12.73.36-4.16.86-8.33,1.31-12.28,2.2-3.99.83-7.49,2.41-11.36,4.1-1.93.8-3.99,1.58-6.04,2.14-2.08.54-4.1,1.04-6.1,1.49-3.99,1.07-7.91,2.02-11.33,4.46Z"/>
        <path class="cls-4" d="M86.46,137.97c3.27-2.17,6.84-3.87,10.59-5.23,3.72-1.4,7.67-2.35,11.63-2.88,3.87-.51,7.67-1.04,11.45-1.73,3.78-.68,8-1.43,11.93-.45-3.99.42-7.47,1.81-11.21,2.97-3.81,1.25-7.76,1.93-11.66,2.5-3.84.45-7.52,1.19-11.3,2.05l-11.42,2.77Z"/>
        <path class="cls-4" d="M82.92,144.93c2.65-3.54,6.57-6.1,10.56-8.15,1.99-1.04,4.07-1.93,6.22-2.77,2.14-.77,4.28-1.4,6.31-2.14,2.05-.68,3.99-1.49,5.74-2.5,1.9-1.07,3.9-2.23,6.01-3.09,4.16-1.84,8.8-3,13.35-2.71-4.4,1.1-8.36,2.83-12.05,5-1.84,1.1-3.66,2.23-5.5,3.45-1.99,1.28-4.19,2.17-6.33,2.97-4.4,1.43-8.45,2.53-12.58,4.13-4.07,1.58-8.06,3.27-11.72,5.8Z"/>
        <path class="cls-4" d="M82.26,147.63c.74-.45,1.07-1.13,1.67-1.78.65-.65,1.34-1.04,2.02-1.58,1.4-.98,2.83-1.93,4.31-2.74,2.97-1.67,6.13-2.97,9.4-3.96l4.94-1.46c1.67-.45,3.3-.74,4.97-1.01l2.5-.42c.86-.12,1.78-.21,2.62-.24,1.73-.06,3.33-.06,5.06-.33-1.4.98-3.15,1.46-4.76,1.96-.8.24-1.58.45-2.32.74l-2.38.8c-3.24,1.01-6.33,2.08-9.46,3.12-3.18.86-6.28,2.02-9.37,3.15l-4.61,1.78c-.74.3-1.64.57-2.29.89-.62.33-1.4.95-2.29,1.04Z"/>
        <path class="cls-4" d="M81.46,145.82c-.27-.74-.95-1.16-1.55-1.64-.62-.48-1.25-.89-1.93-1.49-1.22-1.34-2.05-2.41-3.06-3.63-1.93-2.38-4.04-4.4-6.13-6.99-.95-1.31-1.87-2.71-2.56-4.25-.33-.8-.59-1.64-.71-2.53-.12-.77-.21-1.52-.27-2.26-.33-3.03-.54-6.07-.39-9.22,1.31,2.83,2.26,5.77,3.09,8.71.21.74.42,1.49.59,2.2.15.59.42,1.22.74,1.81.62,1.22,1.43,2.41,2.35,3.57.86,1.22,1.84,2.29,2.86,3.57.98,1.28,1.9,2.59,2.68,3.96.8,1.31,1.55,2.86,2.14,4.04.36.59.89,1.22,1.31,1.9.42.65.95,1.43.83,2.23Z"/>
      </g>
      <path class="cls-2" d="M62.87,178.8c3.36-5.53,9.84-7.29,8.33-15.11-.98-5.12-10.38-11.27-6.36-14.42.62.92,1.55,1.64,2.68,1.9-.06.03-.09.06-.15.06,1.25,1.9,5.8,1.37,7.97,1.55,4.49.39,9.25.3,13.77.12,1.52-.06,7.61.51,8.3-1.25.06-.15.09-.27.09-.39.86-.51,1.49-1.31,1.84-2.2,4.76,3.09-5.06,9.4-6.07,14.66-1.52,7.79,4.97,9.58,8.33,15.11,4.04,6.63,6.39,18.05,1.31,24.8-2.32,3.09-6.31,5.03-8.39,8.3-2.62,4.07,3.99,4.85,3.09,8.54-.68,2.71-7.94,3.45-15.32,3.24-7.41.21-14.69-.54-15.38-3.24-.89-3.66,5.71-4.43,3.09-8.54-2.08-3.27-6.07-5.23-8.39-8.3-5.12-6.78-2.77-18.23,1.25-24.83Z"/>
    </g>
  </g>
</svg>